<svg width="210" height="32" viewBox="0 0 210 32" fill="none" xmlns="http://www.w3.org/2000/svg">
<path d="M9.80508 4.03148L11.3651 25.0915C11.4251 25.8315 11.3351 26.5415 11.0951 27.2215C10.8551 27.9015 10.5051 28.5015 10.0451 29.0215C9.60508 29.5415 9.06508 29.9615 8.42508 30.2815C7.78508 30.6215 7.09508 30.8215 6.35508 30.8815C5.59508 30.9415 4.87508 30.8515 4.19508 30.6115C3.53508 30.3915 2.93508 30.0515 2.39508 29.5915C1.87508 29.1315 1.44508 28.5815 1.10508 27.9415C0.785078 27.3215 0.595078 26.6315 0.535078 25.8715C0.495078 25.3915 0.525078 24.9115 0.625078 24.4315L4.70508 3.73148C4.76508 3.37148 4.89508 3.05148 5.09508 2.77148C5.29508 2.49148 5.52508 2.26148 5.78508 2.08148C6.06508 1.90148 6.36508 1.78148 6.68508 1.72148C7.02508 1.64148 7.37508 1.63148 7.73508 1.69148C8.31508 1.81148 8.79508 2.09148 9.17508 2.53148C9.55508 2.97148 9.76508 3.47148 9.80508 4.03148ZM8.03508 5.38148H8.06508V5.35148H8.09508L8.15508 5.29148L8.27508 5.20148C8.35508 5.16148 8.42508 5.11148 8.48508 5.05148C8.56508 5.01148 8.63508 4.96148 8.69508 4.90148C8.77508 4.84148 8.85508 4.79148 8.93508 4.75148C9.21508 4.57148 9.52508 4.38148 9.86508 4.18148C10.0251 4.08148 10.1851 4.00148 10.3451 3.94148C10.5251 3.86148 10.6951 3.77148 10.8551 3.67148L11.9351 3.22148C12.1351 3.16148 12.3251 3.10148 12.5051 3.04148C12.7051 2.98148 12.9151 2.93148 13.1351 2.89148C13.5151 2.79148 13.9651 2.72148 14.4851 2.68148C14.6051 2.66148 14.7251 2.65148 14.8451 2.65148C14.9651 2.65148 15.0851 2.65148 15.2051 2.65148C15.3451 2.65148 15.4751 2.66148 15.5951 2.68148C15.7151 2.68148 15.8451 2.69148 15.9851 2.71148C16.2451 2.75148 16.5051 2.80148 16.7651 2.86148C17.0451 2.92148 17.3151 3.00148 17.5751 3.10148C18.0751 3.26148 18.5651 3.52148 19.0451 3.88148C19.2651 4.04148 19.4651 4.21148 19.6451 4.39148C19.8251 4.55148 19.9951 4.73148 20.1551 4.93148C20.3151 5.11148 20.4551 5.30148 20.5751 5.50148C20.7151 5.68148 20.8351 5.86148 20.9351 6.04148C21.1551 6.46148 21.3351 6.83148 21.4751 7.15148C21.6151 7.51148 21.7351 7.87148 21.8351 8.23148C21.8951 8.41148 21.9351 8.59148 21.9551 8.77148C21.9951 8.95148 22.0351 9.13148 22.0751 9.31148C22.1551 9.63148 22.2151 9.97148 22.2551 10.3315C22.2751 10.4315 22.2851 10.5215 22.2851 10.6015C22.2851 10.6615 22.2951 10.7415 22.3151 10.8415V10.9015V10.9615L22.3451 11.0815V11.3515C22.3651 11.6915 22.3651 12.0415 22.3451 12.4015C22.3451 12.7615 22.3251 13.1415 22.2851 13.5415C22.2451 13.9215 22.1751 14.3115 22.0751 14.7115C21.9951 15.1115 21.8751 15.5115 21.7151 15.9115C21.5151 16.3715 21.3051 16.7815 21.0851 17.1415C20.9651 17.3615 20.8251 17.5715 20.6651 17.7715C20.5051 17.9715 20.3451 18.1715 20.1851 18.3715C19.8451 18.7315 19.4351 19.0915 18.9551 19.4515C18.8551 19.5315 18.7451 19.6115 18.6251 19.6915C18.5051 19.7515 18.3851 19.8215 18.2651 19.9015C18.1451 19.9815 18.0251 20.0515 17.9051 20.1115C17.7851 20.1715 17.6651 20.2315 17.5451 20.2915C16.9851 20.5515 16.4751 20.7515 16.0151 20.8915C15.7551 20.9715 15.4951 21.0415 15.2351 21.1015C14.9951 21.1415 14.7451 21.1815 14.4851 21.2215C14.2451 21.2615 13.9951 21.3015 13.7351 21.3415C13.4951 21.3615 13.2551 21.3715 13.0151 21.3715C12.5551 21.4115 12.0951 21.4115 11.6351 21.3715C10.7751 21.3115 9.91508 21.1715 9.05508 20.9515C8.85508 20.8915 8.65508 20.8315 8.45508 20.7715C8.27508 20.7115 8.08508 20.6315 7.88508 20.5315C7.78508 20.4915 7.68508 20.4515 7.58508 20.4115C7.50508 20.3715 7.41508 20.3315 7.31508 20.2915C7.27508 20.2515 7.22508 20.2315 7.16508 20.2315C7.10508 20.2115 7.05508 20.1815 7.01508 20.1415L6.95508 20.1115L6.86508 20.0515L6.77508 20.0215V19.9915H6.74508L6.68508 19.9615C6.22508 19.8015 5.83508 19.5715 5.51508 19.2715C5.19508 18.9715 4.94508 18.6415 4.76508 18.2815C4.60508 17.9215 4.52508 17.5415 4.52508 17.1415C4.52508 16.7415 4.61508 16.3415 4.79508 15.9415C4.97508 15.5615 5.23508 15.2315 5.57508 14.9515C5.91508 14.6715 6.28508 14.4615 6.68508 14.3215C7.10508 14.1615 7.54508 14.0815 8.00508 14.0815C8.46508 14.0615 8.91508 14.1315 9.35508 14.2915H9.38508H9.44508L9.47508 14.2615H9.65508C9.75508 14.2815 9.88508 14.2915 10.0451 14.2915C10.1851 14.2915 10.3151 14.3015 10.4351 14.3215C10.5551 14.3215 10.6851 14.3315 10.8251 14.3515C11.0651 14.3715 11.2951 14.3915 11.5151 14.4115C11.7551 14.4115 11.9851 14.4215 12.2051 14.4415C12.3251 14.4615 12.4351 14.4715 12.5351 14.4715C12.6351 14.4715 12.7351 14.4815 12.8351 14.5015H13.3751C13.5951 14.5015 13.7451 14.4915 13.8251 14.4715C13.8851 14.4515 13.9451 14.4415 14.0051 14.4415C14.0651 14.4415 14.1151 14.4315 14.1551 14.4115C14.2751 14.3915 14.3651 14.3615 14.4251 14.3215C14.5451 14.2815 14.6351 14.2415 14.6951 14.2015C14.7751 14.1415 14.8551 14.0615 14.9351 13.9615C14.9751 13.9215 15.0151 13.8815 15.0551 13.8415C15.1151 13.7815 15.1651 13.7115 15.2051 13.6315C15.3651 13.3715 15.5151 13.0315 15.6551 12.6115C15.7151 12.4115 15.7651 12.2015 15.8051 11.9815C15.8451 11.7415 15.8851 11.5115 15.9251 11.2915L15.9551 11.1115V11.0215V10.9615V10.9315C15.9751 10.8315 15.9851 10.7015 15.9851 10.5415C16.0051 10.4215 16.0151 10.3015 16.0151 10.1815C16.0151 10.0615 16.0151 9.94148 16.0151 9.82148V9.13148C15.9951 9.01148 15.9851 8.90148 15.9851 8.80148C15.9851 8.68148 15.9751 8.57148 15.9551 8.47148C15.9351 8.37148 15.9151 8.28148 15.8951 8.20148C15.8751 8.10148 15.8551 8.01148 15.8351 7.93148C15.7951 7.83148 15.7651 7.75148 15.7451 7.69148C15.7251 7.61148 15.7051 7.54148 15.6851 7.48148C15.6451 7.40148 15.5851 7.30148 15.5051 7.18148C15.4251 7.08148 15.3651 7.01148 15.3251 6.97148C15.2651 6.89148 15.1651 6.82148 15.0251 6.76148C15.0051 6.76148 14.9351 6.74148 14.8151 6.70148C14.7751 6.68148 14.7251 6.67148 14.6651 6.67148C14.6251 6.67148 14.5851 6.66148 14.5451 6.64148C14.4451 6.62148 14.3351 6.61148 14.2151 6.61148C14.1151 6.61148 14.0051 6.61148 13.8851 6.61148C13.7651 6.61148 13.6351 6.62148 13.4951 6.64148C13.3751 6.64148 13.2451 6.65148 13.1051 6.67148C12.9851 6.69148 12.8551 6.71148 12.7151 6.73148C12.5751 6.73148 12.4351 6.75148 12.2951 6.79148C12.1551 6.83148 12.0151 6.87148 11.8751 6.91148C11.7551 6.95148 11.6151 6.99148 11.4551 7.03148C11.1351 7.09148 10.8551 7.18148 10.6151 7.30148C10.5351 7.32148 10.4651 7.34148 10.4051 7.36148C10.3451 7.38148 10.2751 7.41148 10.1951 7.45148L9.98508 7.51148L9.89508 7.57148H9.86508H9.83508L9.80508 7.60148H9.77508C9.39508 7.76148 9.00508 7.79148 8.60508 7.69148C8.20508 7.57148 7.90508 7.34148 7.70508 7.00148C7.54508 6.72148 7.49508 6.44148 7.55508 6.16148C7.63508 5.86148 7.79508 5.60148 8.03508 5.38148ZM7.25508 3.40148C7.25508 3.62148 7.32508 3.81148 7.46508 3.97148C7.62508 4.11148 7.81508 4.18148 8.03508 4.18148C8.25508 4.18148 8.44508 4.11148 8.60508 3.97148C8.76508 3.81148 8.84508 3.62148 8.84508 3.40148C8.84508 3.18148 8.76508 2.99148 8.60508 2.83148C8.44508 2.67148 8.25508 2.59148 8.03508 2.59148C7.81508 2.59148 7.62508 2.67148 7.46508 2.83148C7.32508 2.99148 7.25508 3.18148 7.25508 3.40148ZM16.2251 4.69148C16.2251 4.91148 16.2951 5.10148 16.4351 5.26148C16.5951 5.40148 16.7851 5.47148 17.0051 5.47148C17.2251 5.47148 17.4151 5.40148 17.5751 5.26148C17.7351 5.10148 17.8151 4.91148 17.8151 4.69148C17.8151 4.47148 17.7351 4.28148 17.5751 4.12148C17.4151 3.96148 17.2251 3.88148 17.0051 3.88148C16.7851 3.88148 16.5951 3.96148 16.4351 4.12148C16.2951 4.28148 16.2251 4.47148 16.2251 4.69148ZM29.0109 0.971484L44.5209 2.83148C44.9609 2.89148 45.3609 3.03148 45.7209 3.25148C46.0809 3.45148 46.3809 3.71148 46.6209 4.03148C46.8809 4.33148 47.0709 4.69148 47.1909 5.11148C47.3109 5.51148 47.3509 5.93148 47.3109 6.37148C47.2509 6.81148 47.1109 7.21148 46.8909 7.57148C46.6909 7.93148 46.4309 8.24148 46.1109 8.50148C45.7909 8.76148 45.4209 8.95148 45.0009 9.07148C44.6009 9.19148 44.1809 9.22148 43.7409 9.16148C43.5809 9.12148 43.4609 9.10148 43.3809 9.10148L31.2609 6.19148L31.6209 11.0215L37.4109 9.85148C37.8509 9.77148 38.2709 9.78148 38.6709 9.88148C39.0909 9.96148 39.4709 10.1115 39.8109 10.3315C40.1509 10.5515 40.4409 10.8415 40.6809 11.2015C40.9209 11.5415 41.0909 11.9315 41.1909 12.3715C41.2709 12.8115 41.2709 13.2415 41.1909 13.6615C41.1109 14.0615 40.9509 14.4315 40.7109 14.7715C40.4909 15.1115 40.2009 15.4115 39.8409 15.6715C39.5009 15.9115 39.1109 16.0715 38.6709 16.1515C38.6309 16.1515 38.5909 16.1615 38.5509 16.1815C38.5109 16.1815 38.4709 16.1815 38.4309 16.1815L32.0409 16.9315L32.1309 18.1915L44.1909 16.1515C44.7709 16.0515 45.3309 16.0715 45.8709 16.2115C46.4309 16.3515 46.9309 16.5815 47.3709 16.9015C47.8309 17.2015 48.2109 17.5915 48.5109 18.0715C48.8109 18.5515 49.0109 19.0815 49.1109 19.6615C49.1909 20.1815 49.1809 20.7015 49.0809 21.2215C48.9809 21.7215 48.8009 22.1815 48.5409 22.6015C48.2809 23.0215 47.9509 23.3915 47.5509 23.7115C47.1509 24.0315 46.7009 24.2715 46.2009 24.4315L29.6409 29.7415C29.5409 29.7815 29.4309 29.8115 29.3109 29.8315C29.2109 29.8515 29.1009 29.8715 28.9809 29.8915C28.7609 29.9715 28.5309 30.0315 28.2909 30.0715C28.0709 30.1315 27.8409 30.1715 27.6009 30.1915C26.8409 30.2515 26.1209 30.1615 25.4409 29.9215C24.7809 29.7015 24.1809 29.3615 23.6409 28.9015C23.1209 28.4415 22.6909 27.8915 22.3509 27.2515C22.0309 26.6315 21.8409 25.9415 21.7809 25.1815C21.7409 24.7015 21.7709 24.2215 21.8709 23.7415L25.9509 3.04148C26.0709 2.40148 26.3909 1.89148 26.9109 1.51148C27.4309 1.11148 28.0109 0.931483 28.6509 0.971484H29.0109ZM43.8009 4.30148C43.8009 4.52148 43.8709 4.71148 44.0109 4.87148C44.1709 5.01148 44.3609 5.08148 44.5809 5.08148C44.8009 5.08148 44.9909 5.01148 45.1509 4.87148C45.3109 4.71148 45.3909 4.52148 45.3909 4.30148C45.3909 4.08148 45.3109 3.89148 45.1509 3.73148C44.9909 3.57148 44.8009 3.49148 44.5809 3.49148C44.3609 3.49148 44.1709 3.57148 44.0109 3.73148C43.8709 3.89148 43.8009 4.08148 43.8009 4.30148ZM38.2209 11.3515C38.2209 11.5715 38.2909 11.7615 38.4309 11.9215C38.5909 12.0615 38.7809 12.1315 39.0009 12.1315C39.2209 12.1315 39.4109 12.0615 39.5709 11.9215C39.7309 11.7615 39.8109 11.5715 39.8109 11.3515C39.8109 11.1315 39.7309 10.9415 39.5709 10.7815C39.4109 10.6215 39.2209 10.5415 39.0009 10.5415C38.7809 10.5415 38.5909 10.6215 38.4309 10.7815C38.2909 10.9415 38.2209 11.1315 38.2209 11.3515ZM45.5409 17.8015C45.5409 18.0215 45.6109 18.2115 45.7509 18.3715C45.9109 18.5115 46.1009 18.5815 46.3209 18.5815C46.5409 18.5815 46.7309 18.5115 46.8909 18.3715C47.0509 18.2115 47.1309 18.0215 47.1309 17.8015C47.1309 17.5815 47.0509 17.3915 46.8909 17.2315C46.7309 17.0715 46.5409 16.9915 46.3209 16.9915C46.1009 16.9915 45.9109 17.0715 45.7509 17.2315C45.6109 17.3915 45.5409 17.5815 45.5409 17.8015ZM57.8813 4.03148L59.4413 25.0915C59.5013 25.8315 59.4113 26.5415 59.1713 27.2215C58.9313 27.9015 58.5813 28.5015 58.1213 29.0215C57.6813 29.5415 57.1413 29.9615 56.5013 30.2815C55.8613 30.6215 55.1713 30.8215 54.4313 30.8815C53.6713 30.9415 52.9513 30.8515 52.2713 30.6115C51.6113 30.3915 51.0113 30.0515 50.4713 29.5915C49.9513 29.1315 49.5213 28.5815 49.1813 27.9415C48.8612 27.3215 48.6712 26.6315 48.6112 25.8715C48.5712 25.3915 48.6012 24.9115 48.7012 24.4315L52.7812 3.73148C52.8413 3.37148 52.9713 3.05148 53.1713 2.77148C53.3713 2.49148 53.6013 2.26148 53.8613 2.08148C54.1413 1.90148 54.4413 1.78148 54.7613 1.72148C55.1013 1.64148 55.4513 1.63148 55.8113 1.69148C56.3913 1.81148 56.8713 2.09148 57.2513 2.53148C57.6313 2.97148 57.8413 3.47148 57.8813 4.03148ZM56.1113 5.38148H56.1413V5.35148H56.1713L56.2313 5.29148L56.3513 5.20148C56.4313 5.16148 56.5013 5.11148 56.5613 5.05148C56.6413 5.01148 56.7113 4.96148 56.7713 4.90148C56.8513 4.84148 56.9313 4.79148 57.0113 4.75148C57.2913 4.57148 57.6013 4.38148 57.9413 4.18148C58.1013 4.08148 58.2613 4.00148 58.4213 3.94148C58.6013 3.86148 58.7713 3.77148 58.9313 3.67148L60.0113 3.22148C60.2113 3.16148 60.4013 3.10148 60.5813 3.04148C60.7813 2.98148 60.9913 2.93148 61.2113 2.89148C61.5913 2.79148 62.0413 2.72148 62.5613 2.68148C62.6813 2.66148 62.8013 2.65148 62.9213 2.65148C63.0413 2.65148 63.1613 2.65148 63.2813 2.65148C63.4213 2.65148 63.5513 2.66148 63.6713 2.68148C63.7913 2.68148 63.9213 2.69148 64.0613 2.71148C64.3213 2.75148 64.5813 2.80148 64.8413 2.86148C65.1213 2.92148 65.3913 3.00148 65.6513 3.10148C66.1513 3.26148 66.6413 3.52148 67.1213 3.88148C67.3413 4.04148 67.5413 4.21148 67.7213 4.39148C67.9013 4.55148 68.0713 4.73148 68.2313 4.93148C68.3913 5.11148 68.5313 5.30148 68.6513 5.50148C68.7913 5.68148 68.9113 5.86148 69.0113 6.04148C69.2313 6.46148 69.4113 6.83148 69.5513 7.15148C69.6913 7.51148 69.8113 7.87148 69.9113 8.23148C69.9713 8.41148 70.0113 8.59148 70.0313 8.77148C70.0713 8.95148 70.1113 9.13148 70.1513 9.31148C70.2313 9.63148 70.2913 9.97148 70.3313 10.3315C70.3513 10.4315 70.3613 10.5215 70.3613 10.6015C70.3613 10.6615 70.3713 10.7415 70.3913 10.8415V10.9015V10.9615L70.4213 11.0815V11.3515C70.4413 11.6915 70.4413 12.0415 70.4213 12.4015C70.4213 12.7615 70.4013 13.1415 70.3613 13.5415C70.3213 13.9215 70.2513 14.3115 70.1513 14.7115C70.0713 15.1115 69.9513 15.5115 69.7913 15.9115C69.5913 16.3715 69.3813 16.7815 69.1613 17.1415C69.0413 17.3615 68.9013 17.5715 68.7413 17.7715C68.5813 17.9715 68.4213 18.1715 68.2613 18.3715C67.9213 18.7315 67.5113 19.0915 67.0313 19.4515C66.9313 19.5315 66.8213 19.6115 66.7013 19.6915C66.5813 19.7515 66.4613 19.8215 66.3413 19.9015C66.2213 19.9815 66.1013 20.0515 65.9812 20.1115C65.8613 20.1715 65.7413 20.2315 65.6213 20.2915C65.0613 20.5515 64.5513 20.7515 64.0913 20.8915C63.8313 20.9715 63.5713 21.0415 63.3113 21.1015C63.0713 21.1415 62.8213 21.1815 62.5613 21.2215C62.3213 21.2615 62.0713 21.3015 61.8113 21.3415C61.5713 21.3615 61.3313 21.3715 61.0913 21.3715C60.6313 21.4115 60.1713 21.4115 59.7113 21.3715C58.8513 21.3115 57.9913 21.1715 57.1313 20.9515C56.9313 20.8915 56.7313 20.8315 56.5312 20.7715C56.3513 20.7115 56.1613 20.6315 55.9613 20.5315C55.8613 20.4915 55.7613 20.4515 55.6613 20.4115C55.5813 20.3715 55.4913 20.3315 55.3913 20.2915C55.3513 20.2515 55.3013 20.2315 55.2413 20.2315C55.1813 20.2115 55.1313 20.1815 55.0913 20.1415L55.0313 20.1115L54.9413 20.0515L54.8513 20.0215V19.9915H54.8213L54.7613 19.9615C54.3013 19.8015 53.9113 19.5715 53.5913 19.2715C53.2713 18.9715 53.0213 18.6415 52.8413 18.2815C52.6813 17.9215 52.6013 17.5415 52.6013 17.1415C52.6013 16.7415 52.6913 16.3415 52.8713 15.9415C53.0513 15.5615 53.3113 15.2315 53.6513 14.9515C53.9913 14.6715 54.3613 14.4615 54.7613 14.3215C55.1813 14.1615 55.6213 14.0815 56.0813 14.0815C56.5413 14.0615 56.9913 14.1315 57.4313 14.2915H57.4613H57.5213L57.5513 14.2615H57.7313C57.8313 14.2815 57.9613 14.2915 58.1213 14.2915C58.2613 14.2915 58.3913 14.3015 58.5113 14.3215C58.6313 14.3215 58.7613 14.3315 58.9013 14.3515C59.1413 14.3715 59.3713 14.3915 59.5913 14.4115C59.8313 14.4115 60.0613 14.4215 60.2813 14.4415C60.4013 14.4615 60.5113 14.4715 60.6113 14.4715C60.7113 14.4715 60.8113 14.4815 60.9113 14.5015H61.4513C61.6713 14.5015 61.8213 14.4915 61.9013 14.4715C61.9613 14.4515 62.0213 14.4415 62.0813 14.4415C62.1413 14.4415 62.1913 14.4315 62.2313 14.4115C62.3513 14.3915 62.4413 14.3615 62.5013 14.3215C62.6213 14.2815 62.7113 14.2415 62.7713 14.2015C62.8513 14.1415 62.9313 14.0615 63.0113 13.9615C63.0513 13.9215 63.0913 13.8815 63.1313 13.8415C63.1913 13.7815 63.2413 13.7115 63.2813 13.6315C63.4413 13.3715 63.5913 13.0315 63.7313 12.6115C63.7913 12.4115 63.8413 12.2015 63.8813 11.9815C63.9213 11.7415 63.9613 11.5115 64.0013 11.2915L64.0312 11.1115V11.0215V10.9615V10.9315C64.0513 10.8315 64.0613 10.7015 64.0613 10.5415C64.0813 10.4215 64.0913 10.3015 64.0913 10.1815C64.0913 10.0615 64.0913 9.94148 64.0913 9.82148V9.13148C64.0713 9.01148 64.0613 8.90148 64.0613 8.80148C64.0613 8.68148 64.0513 8.57148 64.0312 8.47148C64.0113 8.37148 63.9913 8.28148 63.9713 8.20148C63.9513 8.10148 63.9313 8.01148 63.9113 7.93148C63.8713 7.83148 63.8413 7.75148 63.8213 7.69148C63.8013 7.61148 63.7813 7.54148 63.7613 7.48148C63.7213 7.40148 63.6613 7.30148 63.5813 7.18148C63.5013 7.08148 63.4413 7.01148 63.4013 6.97148C63.3413 6.89148 63.2413 6.82148 63.1013 6.76148C63.0813 6.76148 63.0113 6.74148 62.8913 6.70148C62.8513 6.68148 62.8013 6.67148 62.7413 6.67148C62.7013 6.67148 62.6613 6.66148 62.6213 6.64148C62.5213 6.62148 62.4113 6.61148 62.2913 6.61148C62.1913 6.61148 62.0813 6.61148 61.9613 6.61148C61.8413 6.61148 61.7113 6.62148 61.5713 6.64148C61.4513 6.64148 61.3213 6.65148 61.1813 6.67148C61.0613 6.69148 60.9313 6.71148 60.7913 6.73148C60.6513 6.73148 60.5113 6.75148 60.3713 6.79148C60.2313 6.83148 60.0913 6.87148 59.9513 6.91148C59.8313 6.95148 59.6913 6.99148 59.5313 7.03148C59.2113 7.09148 58.9313 7.18148 58.6913 7.30148C58.6113 7.32148 58.5413 7.34148 58.4813 7.36148C58.4213 7.38148 58.3513 7.41148 58.2713 7.45148L58.0613 7.51148L57.9713 7.57148H57.9413H57.9113L57.8813 7.60148H57.8512C57.4713 7.76148 57.0813 7.79148 56.6813 7.69148C56.2813 7.57148 55.9813 7.34148 55.7813 7.00148C55.6213 6.72148 55.5713 6.44148 55.6313 6.16148C55.7113 5.86148 55.8713 5.60148 56.1113 5.38148ZM55.3313 3.40148C55.3313 3.62148 55.4013 3.81148 55.5413 3.97148C55.7013 4.11148 55.8913 4.18148 56.1113 4.18148C56.3313 4.18148 56.5213 4.11148 56.6813 3.97148C56.8413 3.81148 56.9213 3.62148 56.9213 3.40148C56.9213 3.18148 56.8413 2.99148 56.6813 2.83148C56.5213 2.67148 56.3313 2.59148 56.1113 2.59148C55.8913 2.59148 55.7013 2.67148 55.5413 2.83148C55.4013 2.99148 55.3313 3.18148 55.3313 3.40148ZM64.3013 4.69148C64.3013 4.91148 64.3713 5.10148 64.5113 5.26148C64.6713 5.40148 64.8613 5.47148 65.0813 5.47148C65.3013 5.47148 65.4913 5.40148 65.6513 5.26148C65.8113 5.10148 65.8913 4.91148 65.8913 4.69148C65.8913 4.47148 65.8113 4.28148 65.6513 4.12148C65.4913 3.96148 65.3013 3.88148 65.0813 3.88148C64.8613 3.88148 64.6713 3.96148 64.5113 4.12148C64.3713 4.28148 64.3013 4.47148 64.3013 4.69148ZM77.0871 0.971484L92.5971 2.83148C93.0371 2.89148 93.4371 3.03148 93.7971 3.25148C94.1571 3.45148 94.4571 3.71148 94.6971 4.03148C94.9571 4.33148 95.1471 4.69148 95.2671 5.11148C95.3871 5.51148 95.4271 5.93148 95.3871 6.37148C95.3271 6.81148 95.1871 7.21148 94.9671 7.57148C94.7671 7.93148 94.5071 8.24148 94.1871 8.50148C93.8671 8.76148 93.4971 8.95148 93.0771 9.07148C92.6771 9.19148 92.2571 9.22148 91.8171 9.16148C91.6571 9.12148 91.5371 9.10148 91.4571 9.10148L79.3371 6.19148L79.6971 11.0215L85.4871 9.85148C85.9271 9.77148 86.3471 9.78148 86.7471 9.88148C87.1671 9.96148 87.5471 10.1115 87.8871 10.3315C88.2271 10.5515 88.5171 10.8415 88.7571 11.2015C88.9971 11.5415 89.1671 11.9315 89.2671 12.3715C89.3471 12.8115 89.3471 13.2415 89.2671 13.6615C89.1871 14.0615 89.0271 14.4315 88.7871 14.7715C88.5671 15.1115 88.2771 15.4115 87.9171 15.6715C87.5771 15.9115 87.1871 16.0715 86.7471 16.1515C86.7071 16.1515 86.6671 16.1615 86.6271 16.1815C86.5871 16.1815 86.5471 16.1815 86.5071 16.1815L80.1171 16.9315L80.2071 18.1915L92.2671 16.1515C92.8471 16.0515 93.4071 16.0715 93.9471 16.2115C94.5071 16.3515 95.0071 16.5815 95.4471 16.9015C95.9071 17.2015 96.2871 17.5915 96.5871 18.0715C96.8871 18.5515 97.0871 19.0815 97.1871 19.6615C97.2671 20.1815 97.2571 20.7015 97.1571 21.2215C97.0571 21.7215 96.8771 22.1815 96.6171 22.6015C96.3571 23.0215 96.0271 23.3915 95.6271 23.7115C95.2271 24.0315 94.7771 24.2715 94.2771 24.4315L77.7171 29.7415C77.6171 29.7815 77.5071 29.8115 77.3871 29.8315C77.2871 29.8515 77.1771 29.8715 77.0571 29.8915C76.8371 29.9715 76.6071 30.0315 76.3671 30.0715C76.1471 30.1315 75.9171 30.1715 75.6771 30.1915C74.9171 30.2515 74.1971 30.1615 73.5171 29.9215C72.8571 29.7015 72.2571 29.3615 71.7171 28.9015C71.1971 28.4415 70.7671 27.8915 70.4271 27.2515C70.1071 26.6315 69.9171 25.9415 69.8571 25.1815C69.8171 24.7015 69.8471 24.2215 69.9471 23.7415L74.0271 3.04148C74.1471 2.40148 74.4671 1.89148 74.9871 1.51148C75.5071 1.11148 76.0871 0.931483 76.7271 0.971484H77.0871ZM91.8771 4.30148C91.8771 4.52148 91.9471 4.71148 92.0871 4.87148C92.2471 5.01148 92.4371 5.08148 92.6571 5.08148C92.8771 5.08148 93.0671 5.01148 93.2271 4.87148C93.3871 4.71148 93.4671 4.52148 93.4671 4.30148C93.4671 4.08148 93.3871 3.89148 93.2271 3.73148C93.0671 3.57148 92.8771 3.49148 92.6571 3.49148C92.4371 3.49148 92.2471 3.57148 92.0871 3.73148C91.9471 3.89148 91.8771 4.08148 91.8771 4.30148ZM86.2971 11.3515C86.2971 11.5715 86.3671 11.7615 86.5071 11.9215C86.6671 12.0615 86.8571 12.1315 87.0771 12.1315C87.2971 12.1315 87.4871 12.0615 87.6471 11.9215C87.8071 11.7615 87.8871 11.5715 87.8871 11.3515C87.8871 11.1315 87.8071 10.9415 87.6471 10.7815C87.4871 10.6215 87.2971 10.5415 87.0771 10.5415C86.8571 10.5415 86.6671 10.6215 86.5071 10.7815C86.3671 10.9415 86.2971 11.1315 86.2971 11.3515ZM93.6171 17.8015C93.6171 18.0215 93.6871 18.2115 93.8271 18.3715C93.9871 18.5115 94.1771 18.5815 94.3971 18.5815C94.6171 18.5815 94.8071 18.5115 94.9671 18.3715C95.1271 18.2115 95.2071 18.0215 95.2071 17.8015C95.2071 17.5815 95.1271 17.3915 94.9671 17.2315C94.8071 17.0715 94.6171 16.9915 94.3971 16.9915C94.1771 16.9915 93.9871 17.0715 93.8271 17.2315C93.6871 17.3915 93.6171 17.5815 93.6171 17.8015ZM121.377 3.34148L122.937 24.4015C122.997 25.1415 122.907 25.8515 122.667 26.5315C122.427 27.2115 122.077 27.8115 121.617 28.3315C121.177 28.8515 120.637 29.2715 119.997 29.5915C119.357 29.9315 118.667 30.1315 117.927 30.1915C117.167 30.2515 116.447 30.1615 115.767 29.9215C115.107 29.7015 114.507 29.3615 113.967 28.9015C113.447 28.4415 113.017 27.8915 112.677 27.2515C112.357 26.6315 112.167 25.9415 112.107 25.1815C112.067 24.6815 112.097 24.2015 112.197 23.7415L116.277 3.04148C116.337 2.68148 116.467 2.36148 116.667 2.08148C116.867 1.80148 117.097 1.57148 117.357 1.39148C117.637 1.21148 117.937 1.09148 118.257 1.03148C118.597 0.951483 118.947 0.941483 119.307 1.00148C119.887 1.12148 120.367 1.40148 120.747 1.84148C121.127 2.28148 121.337 2.78148 121.377 3.34148ZM118.167 19.4515L132.417 19.4215C133.037 19.4215 133.557 19.6415 133.977 20.0815C134.417 20.5015 134.637 21.0315 134.637 21.6715C134.637 22.1115 134.517 22.5115 134.277 22.8715C134.057 23.2315 133.757 23.5015 133.377 23.6815L120.507 29.7715C119.827 30.0915 119.127 30.2615 118.407 30.2815C117.707 30.3215 117.027 30.2215 116.367 29.9815C115.707 29.7615 115.107 29.4115 114.567 28.9315C114.027 28.4515 113.597 27.8715 113.277 27.1915C112.957 26.5115 112.777 25.8215 112.737 25.1215C112.717 24.4015 112.827 23.7115 113.067 23.0515C113.307 22.3915 113.657 21.7915 114.117 21.2515C114.597 20.7115 115.177 20.2815 115.857 19.9615C116.637 19.6215 117.407 19.4515 118.167 19.4515ZM118.407 2.92148C118.407 3.14148 118.477 3.33148 118.617 3.49148C118.777 3.63148 118.967 3.70148 119.187 3.70148C119.407 3.70148 119.597 3.63148 119.757 3.49148C119.917 3.33148 119.997 3.14148 119.997 2.92148C119.997 2.70148 119.917 2.51148 119.757 2.35148C119.597 2.19148 119.407 2.11148 119.187 2.11148C118.967 2.11148 118.777 2.19148 118.617 2.35148C118.477 2.51148 118.407 2.70148 118.407 2.92148ZM131.847 20.9515C131.847 21.1715 131.917 21.3615 132.057 21.5215C132.217 21.6615 132.407 21.7315 132.627 21.7315C132.847 21.7315 133.037 21.6615 133.197 21.5215C133.357 21.3615 133.437 21.1715 133.437 20.9515C133.437 20.7315 133.357 20.5415 133.197 20.3815C133.037 20.2215 132.847 20.1415 132.627 20.1415C132.407 20.1415 132.217 20.2215 132.057 20.3815C131.917 20.5415 131.847 20.7315 131.847 20.9515ZM146.179 3.07148C147.919 3.07148 149.559 3.44148 151.099 4.18148C152.639 4.92148 153.979 5.93148 155.119 7.21148C156.259 8.49148 157.159 9.99148 157.819 11.7115C158.479 13.4315 158.809 15.2715 158.809 17.2315C158.809 19.1915 158.479 21.0315 157.819 22.7515C157.159 24.4515 156.259 25.9415 155.119 27.2215C153.979 28.5015 152.639 29.5115 151.099 30.2515C149.559 30.9915 147.919 31.3615 146.179 31.3615C144.439 31.3615 142.799 30.9915 141.259 30.2515C139.739 29.5115 138.409 28.5015 137.269 27.2215C136.129 25.9415 135.229 24.4515 134.569 22.7515C133.909 21.0315 133.579 19.1915 133.579 17.2315C133.579 15.2715 133.909 13.4315 134.569 11.7115C135.229 9.99148 136.129 8.49148 137.269 7.21148C138.409 5.93148 139.739 4.92148 141.259 4.18148C142.799 3.44148 144.439 3.07148 146.179 3.07148ZM146.479 15.9715C147.159 15.9715 147.789 15.8415 148.369 15.5815C148.969 15.3215 149.489 14.9715 149.929 14.5315C150.369 14.0915 150.719 13.5815 150.979 13.0015C151.239 12.4015 151.369 11.7615 151.369 11.0815C151.369 10.4015 151.239 9.77148 150.979 9.19148C150.719 8.59148 150.369 8.07148 149.929 7.63148C149.489 7.19148 148.969 6.84148 148.369 6.58148C147.789 6.32148 147.159 6.19148 146.479 6.19148C145.799 6.19148 145.159 6.32148 144.559 6.58148C143.979 6.84148 143.469 7.19148 143.029 7.63148C142.589 8.07148 142.239 8.59148 141.979 9.19148C141.719 9.77148 141.589 10.4015 141.589 11.0815C141.589 11.7615 141.719 12.4015 141.979 13.0015C142.239 13.5815 142.589 14.0915 143.029 14.5315C143.469 14.9715 143.979 15.3215 144.559 15.5815C145.159 15.8415 145.799 15.9715 146.479 15.9715ZM150.139 5.47148C150.139 5.69148 150.209 5.88148 150.349 6.04148C150.509 6.18148 150.699 6.25148 150.919 6.25148C151.139 6.25148 151.329 6.18148 151.489 6.04148C151.649 5.88148 151.729 5.69148 151.729 5.47148C151.729 5.25148 151.649 5.06148 151.489 4.90148C151.329 4.74148 151.139 4.66148 150.919 4.66148C150.699 4.66148 150.509 4.74148 150.349 4.90148C150.209 5.06148 150.139 5.25148 150.139 5.47148ZM141.379 15.5215C141.379 15.7415 141.449 15.9315 141.589 16.0915C141.749 16.2315 141.939 16.3015 142.159 16.3015C142.379 16.3015 142.569 16.2315 142.729 16.0915C142.889 15.9315 142.969 15.7415 142.969 15.5215C142.969 15.3015 142.889 15.1115 142.729 14.9515C142.569 14.7915 142.379 14.7115 142.159 14.7115C141.939 14.7115 141.749 14.7915 141.589 14.9515C141.449 15.1115 141.379 15.3015 141.379 15.5215ZM167.359 4.03148L168.919 25.0915C168.979 25.8315 168.889 26.5415 168.649 27.2215C168.409 27.9015 168.059 28.5015 167.599 29.0215C167.159 29.5415 166.619 29.9615 165.979 30.2815C165.339 30.6215 164.649 30.8215 163.909 30.8815C163.149 30.9415 162.429 30.8515 161.749 30.6115C161.089 30.3915 160.489 30.0515 159.949 29.5915C159.429 29.1315 159.009 28.5815 158.689 27.9415C158.349 27.3215 158.149 26.6315 158.089 25.8715C158.049 25.3915 158.079 24.9115 158.179 24.4315L162.259 3.73148C162.319 3.37148 162.449 3.05148 162.649 2.77148C162.849 2.49148 163.079 2.26148 163.339 2.08148C163.619 1.90148 163.919 1.78148 164.239 1.72148C164.579 1.64148 164.929 1.63148 165.289 1.69148C165.869 1.81148 166.349 2.09148 166.729 2.53148C167.109 2.97148 167.319 3.47148 167.359 4.03148ZM165.589 5.38148H165.619V5.35148H165.649L165.709 5.29148L165.829 5.20148C165.909 5.16148 165.979 5.11148 166.039 5.05148C166.119 5.01148 166.189 4.96148 166.249 4.90148C166.329 4.84148 166.409 4.79148 166.489 4.75148C166.769 4.57148 167.079 4.38148 167.419 4.18148C167.579 4.08148 167.739 4.00148 167.899 3.94148C168.079 3.86148 168.249 3.77148 168.409 3.67148L169.489 3.22148C169.689 3.16148 169.879 3.10148 170.059 3.04148C170.259 2.98148 170.469 2.93148 170.689 2.89148C171.069 2.79148 171.519 2.72148 172.039 2.68148C172.159 2.66148 172.279 2.65148 172.399 2.65148C172.519 2.65148 172.639 2.65148 172.759 2.65148C172.899 2.65148 173.029 2.66148 173.149 2.68148C173.269 2.68148 173.399 2.69148 173.539 2.71148C173.799 2.75148 174.059 2.80148 174.319 2.86148C174.599 2.92148 174.869 3.00148 175.129 3.10148C175.629 3.26148 176.119 3.52148 176.599 3.88148C176.819 4.04148 177.019 4.21148 177.199 4.39148C177.379 4.55148 177.549 4.73148 177.709 4.93148C177.869 5.11148 178.009 5.30148 178.129 5.50148C178.269 5.68148 178.389 5.86148 178.489 6.04148C178.709 6.46148 178.889 6.83148 179.029 7.15148C179.169 7.51148 179.289 7.87148 179.389 8.23148C179.449 8.41148 179.489 8.59148 179.509 8.77148C179.549 8.95148 179.589 9.13148 179.629 9.31148C179.709 9.63148 179.769 9.97148 179.809 10.3315C179.829 10.4315 179.839 10.5215 179.839 10.6015C179.839 10.6615 179.849 10.7415 179.869 10.8415V10.9015V10.9615L179.899 11.0815V11.3515C179.919 11.6915 179.919 12.0415 179.899 12.4015C179.899 12.7615 179.879 13.1415 179.839 13.5415C179.799 13.9215 179.729 14.3115 179.629 14.7115C179.549 15.1115 179.429 15.5115 179.269 15.9115C179.069 16.3715 178.859 16.7815 178.639 17.1415C178.519 17.3615 178.379 17.5715 178.219 17.7715C178.059 17.9715 177.899 18.1715 177.739 18.3715C177.399 18.7315 176.989 19.0915 176.509 19.4515C176.409 19.5315 176.299 19.6115 176.179 19.6915C176.059 19.7515 175.939 19.8215 175.819 19.9015C175.699 19.9815 175.579 20.0515 175.459 20.1115C175.339 20.1715 175.219 20.2315 175.099 20.2915C174.539 20.5515 174.029 20.7515 173.569 20.8915C173.309 20.9715 173.049 21.0415 172.789 21.1015C172.549 21.1415 172.299 21.1815 172.039 21.2215C171.799 21.2615 171.549 21.3015 171.289 21.3415C171.049 21.3615 170.809 21.3715 170.569 21.3715C170.109 21.4115 169.649 21.4115 169.189 21.3715C168.329 21.3115 167.469 21.1715 166.609 20.9515C166.409 20.8915 166.209 20.8315 166.009 20.7715C165.829 20.7115 165.639 20.6315 165.439 20.5315C165.339 20.4915 165.239 20.4515 165.139 20.4115C165.059 20.3715 164.969 20.3315 164.869 20.2915C164.829 20.2515 164.779 20.2315 164.719 20.2315C164.659 20.2115 164.609 20.1815 164.569 20.1415L164.509 20.1115L164.419 20.0515L164.329 20.0215V19.9915H164.299L164.239 19.9615C163.779 19.8015 163.389 19.5715 163.069 19.2715C162.749 18.9715 162.499 18.6415 162.319 18.2815C162.159 17.9215 162.079 17.5415 162.079 17.1415C162.079 16.7415 162.169 16.3415 162.349 15.9415C162.529 15.5615 162.789 15.2315 163.129 14.9515C163.469 14.6715 163.839 14.4615 164.239 14.3215C164.659 14.1615 165.099 14.0815 165.559 14.0815C166.019 14.0615 166.469 14.1315 166.909 14.2915H166.939H166.999L167.029 14.2615H167.209C167.249 14.2615 167.149 14.1515 166.909 13.9315C166.689 13.7115 166.439 13.4715 166.159 13.2115C165.879 12.9315 165.619 12.6815 165.379 12.4615C165.139 12.2215 165.039 12.1015 165.079 12.1015C165.139 12.1015 165.349 12.1415 165.709 12.2215C166.069 12.2815 166.449 12.3615 166.849 12.4615C167.269 12.5415 167.659 12.6215 168.019 12.7015C168.379 12.7815 168.589 12.8215 168.649 12.8215C168.889 12.8415 169.119 12.8615 169.339 12.8815C169.579 12.8815 169.809 12.8915 170.029 12.9115C170.149 12.9315 170.259 12.9415 170.359 12.9415C170.459 12.9415 170.559 12.9515 170.659 12.9715H171.199C171.419 12.9715 171.569 12.9615 171.649 12.9415C171.709 12.9215 171.769 12.9115 171.829 12.9115C171.889 12.9115 171.939 12.9015 171.979 12.8815C172.099 12.8615 172.189 12.8315 172.249 12.7915C172.369 12.7515 172.459 12.7115 172.519 12.6715C172.599 12.6115 172.679 12.5315 172.759 12.4315C172.799 12.3915 172.839 12.3515 172.879 12.3115C172.939 12.2515 172.989 12.1815 173.029 12.1015C173.309 11.2615 173.469 10.5915 173.509 10.0915C173.549 9.59148 173.569 9.27148 173.569 9.13148C173.549 9.01148 173.539 8.90148 173.539 8.80148C173.539 8.68148 173.529 8.57148 173.509 8.47148C173.489 8.37148 173.469 8.28148 173.449 8.20148C173.429 8.10148 173.409 8.01148 173.389 7.93148C173.349 7.83148 173.319 7.75148 173.299 7.69148C173.279 7.61148 173.259 7.54148 173.239 7.48148C173.199 7.40148 173.139 7.30148 173.059 7.18148C172.979 7.08148 172.919 7.01148 172.879 6.97148C172.819 6.89148 172.719 6.82148 172.579 6.76148C172.559 6.76148 172.489 6.74148 172.369 6.70148C172.329 6.68148 172.279 6.67148 172.219 6.67148C172.179 6.67148 172.139 6.66148 172.099 6.64148C171.999 6.62148 171.889 6.61148 171.769 6.61148C171.669 6.61148 171.559 6.61148 171.439 6.61148C171.319 6.61148 171.189 6.62148 171.049 6.64148C170.929 6.64148 170.799 6.65148 170.659 6.67148C170.539 6.69148 170.409 6.71148 170.269 6.73148C170.129 6.73148 169.989 6.75148 169.849 6.79148C169.709 6.83148 169.569 6.87148 169.429 6.91148C169.309 6.95148 169.169 6.99148 169.009 7.03148C168.689 7.09148 168.409 7.18148 168.169 7.30148C168.089 7.32148 168.019 7.34148 167.959 7.36148C167.899 7.38148 167.829 7.41148 167.749 7.45148L167.539 7.51148L167.449 7.57148H167.419H167.389L167.359 7.60148H167.329C166.949 7.76148 166.559 7.79148 166.159 7.69148C165.759 7.57148 165.459 7.34148 165.259 7.00148C165.099 6.72148 165.049 6.44148 165.109 6.16148C165.189 5.86148 165.349 5.60148 165.589 5.38148ZM172.159 28.9015L164.419 16.8115C164.079 16.2915 163.969 15.7415 164.089 15.1615C164.229 14.5615 164.559 14.0915 165.079 13.7515C165.459 13.5115 165.869 13.4015 166.309 13.4215C166.749 13.4215 167.139 13.5315 167.479 13.7515L179.599 21.4015C180.239 21.8015 180.759 22.3015 181.159 22.9015C181.579 23.4815 181.859 24.1115 181.999 24.7915C182.159 25.4715 182.179 26.1615 182.059 26.8615C181.959 27.5815 181.709 28.2515 181.309 28.8715C180.909 29.5115 180.409 30.0315 179.809 30.4315C179.229 30.8515 178.599 31.1315 177.919 31.2715C177.239 31.4315 176.539 31.4515 175.819 31.3315C175.119 31.2315 174.449 30.9815 173.809 30.5815C173.089 30.1215 172.539 29.5615 172.159 28.9015ZM176.599 20.5915C176.459 20.4915 176.289 20.4615 176.089 20.5015C175.889 20.5215 175.739 20.6015 175.639 20.7415C175.519 20.9215 175.469 21.1015 175.489 21.2815C175.509 21.4615 175.599 21.6115 175.759 21.7315L179.059 23.9815C179.199 24.0815 179.359 24.1215 179.539 24.1015C179.739 24.0615 179.909 23.9815 180.049 23.8615C180.149 23.7015 180.189 23.5315 180.169 23.3515C180.149 23.1515 180.069 23.0015 179.929 22.9015L176.599 20.5915ZM164.989 3.40148C164.989 3.62148 165.059 3.81148 165.199 3.97148C165.359 4.11148 165.549 4.18148 165.769 4.18148C165.989 4.18148 166.179 4.11148 166.339 3.97148C166.499 3.81148 166.579 3.62148 166.579 3.40148C166.579 3.18148 166.499 2.99148 166.339 2.83148C166.179 2.67148 165.989 2.59148 165.769 2.59148C165.549 2.59148 165.359 2.67148 165.199 2.83148C165.059 2.99148 164.989 3.18148 164.989 3.40148ZM173.959 4.69148C173.959 4.91148 174.029 5.10148 174.169 5.26148C174.329 5.40148 174.519 5.47148 174.739 5.47148C174.959 5.47148 175.149 5.40148 175.309 5.26148C175.469 5.10148 175.549 4.91148 175.549 4.69148C175.549 4.47148 175.469 4.28148 175.309 4.12148C175.149 3.96148 174.959 3.88148 174.739 3.88148C174.519 3.88148 174.329 3.96148 174.169 4.12148C174.029 4.28148 173.959 4.47148 173.959 4.69148ZM188.825 0.971484L204.335 2.83148C204.775 2.89148 205.175 3.03148 205.535 3.25148C205.895 3.45148 206.195 3.71148 206.435 4.03148C206.695 4.33148 206.885 4.69148 207.005 5.11148C207.125 5.51148 207.165 5.93148 207.125 6.37148C207.065 6.81148 206.925 7.21148 206.705 7.57148C206.505 7.93148 206.245 8.24148 205.925 8.50148C205.605 8.76148 205.235 8.95148 204.815 9.07148C204.415 9.19148 203.995 9.22148 203.555 9.16148C203.395 9.12148 203.275 9.10148 203.195 9.10148L191.075 6.19148L191.435 11.0215L197.225 9.85148C197.665 9.77148 198.085 9.78148 198.485 9.88148C198.905 9.96148 199.285 10.1115 199.625 10.3315C199.965 10.5515 200.255 10.8415 200.495 11.2015C200.735 11.5415 200.905 11.9315 201.005 12.3715C201.085 12.8115 201.085 13.2415 201.005 13.6615C200.925 14.0615 200.765 14.4315 200.525 14.7715C200.305 15.1115 200.015 15.4115 199.655 15.6715C199.315 15.9115 198.925 16.0715 198.485 16.1515C198.445 16.1515 198.405 16.1615 198.365 16.1815C198.325 16.1815 198.285 16.1815 198.245 16.1815L191.855 16.9315L191.945 18.1915L204.005 16.1515C204.585 16.0515 205.145 16.0715 205.685 16.2115C206.245 16.3515 206.745 16.5815 207.185 16.9015C207.645 17.2015 208.025 17.5915 208.325 18.0715C208.625 18.5515 208.825 19.0815 208.925 19.6615C209.005 20.1815 208.995 20.7015 208.895 21.2215C208.795 21.7215 208.615 22.1815 208.355 22.6015C208.095 23.0215 207.765 23.3915 207.365 23.7115C206.965 24.0315 206.515 24.2715 206.015 24.4315L189.455 29.7415C189.355 29.7815 189.245 29.8115 189.125 29.8315C189.025 29.8515 188.915 29.8715 188.795 29.8915C188.575 29.9715 188.345 30.0315 188.105 30.0715C187.885 30.1315 187.655 30.1715 187.415 30.1915C186.655 30.2515 185.935 30.1615 185.255 29.9215C184.595 29.7015 183.995 29.3615 183.455 28.9015C182.935 28.4415 182.505 27.8915 182.165 27.2515C181.845 26.6315 181.655 25.9415 181.595 25.1815C181.555 24.7015 181.585 24.2215 181.685 23.7415L185.765 3.04148C185.885 2.40148 186.205 1.89148 186.725 1.51148C187.245 1.11148 187.825 0.931483 188.465 0.971484H188.825ZM203.615 4.30148C203.615 4.52148 203.685 4.71148 203.825 4.87148C203.985 5.01148 204.175 5.08148 204.395 5.08148C204.615 5.08148 204.805 5.01148 204.965 4.87148C205.125 4.71148 205.205 4.52148 205.205 4.30148C205.205 4.08148 205.125 3.89148 204.965 3.73148C204.805 3.57148 204.615 3.49148 204.395 3.49148C204.175 3.49148 203.985 3.57148 203.825 3.73148C203.685 3.89148 203.615 4.08148 203.615 4.30148ZM198.035 11.3515C198.035 11.5715 198.105 11.7615 198.245 11.9215C198.405 12.0615 198.595 12.1315 198.815 12.1315C199.035 12.1315 199.225 12.0615 199.385 11.9215C199.545 11.7615 199.625 11.5715 199.625 11.3515C199.625 11.1315 199.545 10.9415 199.385 10.7815C199.225 10.6215 199.035 10.5415 198.815 10.5415C198.595 10.5415 198.405 10.6215 198.245 10.7815C198.105 10.9415 198.035 11.1315 198.035 11.3515ZM205.355 17.8015C205.355 18.0215 205.425 18.2115 205.565 18.3715C205.725 18.5115 205.915 18.5815 206.135 18.5815C206.355 18.5815 206.545 18.5115 206.705 18.3715C206.865 18.2115 206.945 18.0215 206.945 17.8015C206.945 17.5815 206.865 17.3915 206.705 17.2315C206.545 17.0715 206.355 16.9915 206.135 16.9915C205.915 16.9915 205.725 17.0715 205.565 17.2315C205.425 17.3915 205.355 17.5815 205.355 17.8015Z" fill="white"/>
</svg>
